# AST/ASF file generated using VICON BodyLanguage
# -----------------------------------------------
:version 1.10
:name VICON
:units
  mass 1.0
  length 0.45
  angle deg
:documentation
   .ast/.asf automatically generated from VICON data using
   VICON BodyBuilder and BodyLanguage model FoxedUp or BRILLIANT.MOD
:root
   order TX TY TZ RX RY RZ
   axis XYZ
   position 0 0 0  
   orientation 0 0 0 
:bonedata
  begin
     id 1 
     name lhipjoint
     direction 0.671379 -0.66392 0.329334 
     length 2.38647 
     axis 0 0 0  XYZ
  end
  begin
     id 2 
     name lfemur
     direction 0.34202 -0.939693 0  
     length 6.48179  
     axis 0 0 20  XYZ
    dof rx ry rz
    limits (-160.0 20.0)
           (-70.0 70.0)
           (-60.0 70.0)
  end
  begin
     id 3 
     name ltibia
     direction 0.34202 -0.939693 0   
     length 6.86524   
     axis 0 0 20   XYZ
    dof rx
    limits (-10.0 170.0)
  end
  begin
     id 4 
     name lfoot
     direction 0.204886 -0.562919 0.800715   
     length 1.73031   
     axis -90 7.62852e-016 20   XYZ
    dof rx rz
    limits (-45.0 90.0)
           (-70.0 20.0)
  end
  begin
     id 5 
     name ltoes
     direction 1.53548e-011 -4.21841e-011 1   
     length 0.828161   
     axis -90 7.62852e-016 20   XYZ
    dof rx
    limits (-90.0 20.0)
  end
  begin
     id 6 
     name rhipjoint
     direction -0.662732 -0.670855 0.332775   
     length 2.3618  
     axis 0 0 0  XYZ 
  end
  begin
     id 7 
     name rfemur
     direction -0.34202 -0.939693 0   
     length 6.3025   
     axis 0 0 -20   XYZ
    dof rx ry rz
    limits (-160.0 20.0)
           (-70.0 70.0)
           (-70.0 60.0)
  end
  begin
     id 8 
     name rtibia
     direction -0.34202 -0.939693 0   
     length 6.8732   
     axis 0 0 -20   XYZ
    dof rx
    limits (-10.0 170.0)
 end
 begin
     id 9 
     name rfoot
     direction -0.173856 -0.477665 0.861168   
     length 1.54784  
     axis -90 -7.62852e-016 -20   XYZ
    dof rx rz
    limits (-45.0 90.0)
           (-20.0 70.0)
  end
  begin
     id 10 
     name rtoes
     direction -1.53562e-011 -4.21802e-011 1   
     length 0.759618   
     axis -90 -7.62852e-016 -20   XYZ
    dof rx
    limits (-90.0 20.0)
  end
  begin
     id 11 
     name lowerback
     direction -0.0278357 0.999497 -0.0151789   
     length 1.97203   
     axis 0 0 0   XYZ
    dof rx ry rz
    limits (-20.0 45.0)
           (-30.0 30.0)
           (-30.0 30.0)
  end
  begin
     id 12 
     name upperback
     direction -0.00360622 0.997542 0.0699804   
     length 1.94709   
     axis 0 0 0   XYZ
    dof rx ry rz
    limits (-20.0 45.0)
           (-30.0 30.0)
           (-30.0 30.0)
  end
  begin
     id 13 
     name thorax
     direction 0.00907706 0.997048 0.0762461   
     length 1.95722   
     axis 0 0 0   XYZ
    dof rx ry rz
    limits (-20.0 45.0)
           (-30.0 30.0)
           (-30.0 30.0)
  end
  begin
     id 14 
     name lowerneck
     direction -0.0481835 0.99872 -0.0153927   
     length 1.63078   
     axis 0 0 0   XYZ
    dof rx ry rz
    limits (-20.0 45.0)
           (-30.0 30.0)
           (-30.0 30.0)
  end
  begin
     id 15 
     name upperneck
     direction 0.0859716 0.979226 -0.183644   
     length 1.62591   
     axis 0 0 0   XYZ
    dof rx ry rz
    limits (-20.0 45.0)
           (-30.0 30.0)
           (-30.0 30.0)
  end
  begin
     id 16
     name head
     direction 0.0324821 0.997629 -0.0606773  
     length 1.64811  
     axis 0 0 0   XYZ
    dof rx ry rz
    limits (-20.0 45.0)
           (-30.0 30.0)
           (-30.0 30.0)
  end
  begin
     id 17 
     name lclavicle
     direction 0.939609 0.311019 0.142835  
     length 3.70647  
     axis 0 0 0   XYZ
    dof ry rz
    limits (-20.0 10.0)
           (0.0 20.0)
  end
  begin
     id 18 
     name lhumerus
     direction 1 -4.48963e-011 -1.59838e-027   
     length 4.59207   
     axis 180 -30 -90   XYZ
    dof rx ry rz
    limits (-60.0 90.0)
           (-90.0 90.0)
           (-90.0 90.0)
  end
  begin
     id 19
     name lradius
     direction 1 -4.48957e-011 -1.3483e-026   
     length 2.98109   
     axis 180 -30 -90   XYZ
    dof rx
    limits (-10.0 170.0)
  end
  begin
     id 20
     name lwrist
     direction 1 -4.48954e-011 -3.11579e-026   
     length 1.49055   
     axis 2.00652e-014 90 90   XYZ
    dof ry
    limits (-180.0 0.0)
 end
  begin
     id 21 
     name lhand
     direction 1 -4.4911e-011 -6.23158e-026   
     length 0.480203   
     axis 3.97628e-014 90 90   XYZ
    dof rx rz
    limits (-90.0 90.0)
           (-45.0 45.0)
  end
  begin
     id 22 
     name lfingers
     direction 1 -4.48893e-011 -1.24632e-025   
     length 0.387152   
     axis 7.95256e-014 90 90   XYZ
    dof rx
    limits (0.0 90.0)
  end
  begin
     id 23
     name lthumb
     direction 0.707107 -6.35013e-011 0.707107   
     length 0.555875   
     axis -90 45 2.85299e-015   XYZ
    dof rx rz
    limits (-45.0 45.0)
           (-45.0 45.0)
  end
  begin
     id 24 
     name rclavicle
     direction -0.950396 0.30392 0.0661859   
     length 3.70894  
     axis 0 0 0   XYZ 
    dof ry rz
    limits (-10.0 20.0)
           (-20.0 0.0)
  end
  begin
     id 25 
     name rhumerus
     direction -1 -4.48957e-011 -2.96677e-027  
     length 4.76508   
     axis 180 30 90   XYZ
    dof rx ry rz
    limits (-90.0 60.0)
           (-90.0 90.0)
           (-90.0 90.0)
  end
  begin
     id 26 
     name rradius
     direction -1 -4.48974e-011 -1.44501e-026   
     length 2.78902   
     axis 180 30 90   XYZ
    dof rx
    limits (-10.0 170.0)
  end
  begin
     id 27 
     name rwrist
     direction -1 -4.48978e-011 -3.11579e-026   
     length 1.39451   
     axis 2.00652e-014 -90 -90   XYZ
    dof ry
    limits (-180.0 0.0)
  end
  begin
     id 28
     name rhand
     direction -1 -4.48956e-011 -6.23158e-026   
     length 0.721303   
     axis 3.97628e-014 -90 -90   XYZ
    dof rx rz
    limits (-90.0 90.0)
           (-45.0 45.0)
  end
  begin
     id 29
     name rfingers
     direction -1 -4.4899e-011 -1.24632e-025   
     length 0.581533   
     axis 7.95256e-014 -90 -90   XYZ
    dof rx
    limits (0.0 90.0)
  end
  begin
     id 30
     name rthumb
     direction -0.707107 -6.34911e-011 0.707107   
     length 0.834968   
     axis -90 -45 -2.85299e-015   XYZ
    dof rx rz
    limits (-45.0 45.0)
           (-45.0 45.0)
  end
:hierarchy
  begin
    root lhipjoint rhipjoint lowerback
    lhipjoint lfemur
    lfemur ltibia
    ltibia lfoot
    lfoot ltoes
    rhipjoint rfemur
    rfemur rtibia
    rtibia rfoot
    rfoot rtoes
    lowerback upperback
    upperback thorax
    thorax lowerneck lclavicle rclavicle
    lowerneck upperneck
    upperneck head
    lclavicle lhumerus
    lhumerus lradius
    lradius lwrist
    lwrist lhand lthumb
    lhand lfingers
    rclavicle rhumerus
    rhumerus rradius
    rradius rwrist
    rwrist rhand rthumb
    rhand rfingers
  end

#!OML:ASF I:\salsa\salsa 7_09\Patient 1\Session 1\dancerfemale.ASF
:FULLY-SPECIFIED
:DEGREES
2032
root 14.8022 15.5974 -6.19952 -2503.4 -417.334 -17.2059
lowerback 1.63608 2.03189 6.44032
upperback -5.57219 3.14678 3.59173
thorax -6.61148 1.27504 -0.0596465
lowerneck 5.07798 -11.6815 -11.3033
upperneck 14.1202 -16.9883 5.72588
head 4.90692 -8.83353 2.8688
rclavicle 6.11263e-014 3.22031e-014
rhumerus 5.04588 5.41433 -112.174
rradius 84.089
rwrist -29.4983
rhand 33.0773 89.3609
rfingers 7.12502
rthumb 56.4503 72.326
lclavicle 6.11263e-014 3.22031e-014
lhumerus 6.32077 -51.8589 103.303
lradius 86.1639
lwrist -29.6722
lhand -17.4566 -300.372
lfingers 7.12502
lthumb 8.79476 -1350.58
rfemur 1.71036 -12.1593 27.1253
rtibia 21.4603
rfoot -26.7209 1.73742
rtoes -21.2494
lfemur -37.4752 19.8351 -16.6011
ltibia 58.4026
lfoot -30.5954 22.9975
ltoes -1.55855
2033
root 14.7089 15.5983 -6.12464 -2504.2 -414.756 -15.9865
lowerback 1.16352 2.02199 6.42317
upperback -5.78766 3.09809 3.52398
thorax -6.56829 1.24866 -0.10256
lowerneck 5.48598 -12.6173 -11.7388
upperneck 13.6724 -18.3808 6.47024
head 4.93672 -9.50879 3.07982
rclavicle 8.32659e-014 1.21259e-014
rhumerus 6.59883 4.79829 -112.08
rradius 85.6316
rwrist -31.5551
rhand 40.9612 268.834
rfingers 7.12502
rthumb 63.187 81.233
lclavicle 8.32659e-014 1.21259e-014
lhumerus 8.06519 -53.5216 101.119
lradius 87.2073
lwrist -29.4581
lhand -16.0439 -303.906
lfingers 7.12502
lthumb 10.1578 -1354.17
rfemur 2.42784 -11.7301 27.6057
rtibia 20.4443
rfoot -26.8125 -1.05574
rtoes -22.2911
lfemur -38.205 21.0788 -18.1839
ltibia 57.3634
lfoot -30.9642 23.7468
ltoes -1.65202
2034
root 14.6105 15.5899 -6.03619 -2505.1 -412.058 -14.7434
lowerback 0.829587 1.86249 6.46811
upperback -5.97628 2.86364 3.42832
thorax -6.58175 1.12545 -0.203095
lowerneck 5.85343 -13.4499 -12.3795
upperneck 13.1454 -19.6531 7.39528
head 4.99048 -10.1283 3.36894
rclavicle -3.35449e-014 -1.49089e-014
rhumerus 8.30879 4.7328 -112.038
rradius 86.7352
rwrist -31.9231
rhand 44.5766 266.487
rfingers 7.12502
rthumb 66.0625 88.2108
lclavicle -3.35449e-014 -1.49089e-014
lhumerus 10.2932 -55.008 98.2776
lradius 88.2253
lwrist -29.2021
lhand -14.5337 -308.019
lfingers 7.12502
lthumb 11.6145 -1358.36
rfemur 3.12499 -11.6905 27.9381
rtibia 19.7272
rfoot -26.6616 -3.72339
rtoes -24.6245
lfemur -38.7297 22.2286 -19.9006
ltibia 56.5286
lfoot -31.7473 23.6618
ltoes 1.26236
2035
root 14.504 15.5797 -5.93077 -2506.02 -409.297 -13.4329
lowerback 0.36788 1.71094 6.42029
upperback -6.11266 2.61923 3.28385
thorax -6.46732 1.00576 -0.30059
lowerneck 6.49258 -14.2681 -13.1441
upperneck 12.2359 -20.964 8.72957
head 4.96181 -10.7684 3.81181
rclavicle -4.49502e-014 -3.57812e-015
rhumerus 10.3399 4.61033 -112.084
rradius 88.4782
rwrist -32.7908
rhand 50.6405 263.079
rfingers 7.12502
rthumb 70.3652 257.612
lclavicle -4.49502e-014 -3.57812e-015
lhumerus 13.146 -56.5518 94.8749
lradius 89.1679
lwrist -29.1877
lhand -11.8526 -313.05
lfingers 7.12502
lthumb 14.199 -1363.56
rfemur 3.43858 -11.7792 28.0995
rtibia 19.8722
rfoot -26.515 -6.18408
rtoes -26.7413
lfemur -39.0087 23.0555 -21.667
ltibia 55.8881
lfoot -31.1386 23.6223
ltoes -2.65852
2036
root 14.3901 15.5811 -5.80498 -2507.24 -406.584 -11.7058
lowerback -0.0238084 1.69528 5.72857
upperback -6.34574 2.5485 3.12487
thorax -6.50862 1.00222 -0.0706879
lowerneck 7.52219 -15.203 -13.8317
upperneck 11.0918 -22.4571 10.0661
head 4.8423 -11.5169 4.25766
rclavicle 5.20319e-014 -2.8625e-014
rhumerus 12.5306 4.08585 -112.051
rradius 90.8933
rwrist -32.7616
rhand 57.8234 258.116
rfingers 7.12502
rthumb 73.9884 233.139
lclavicle 5.20319e-014 -2.8625e-014
lhumerus 16.0426 -58.2303 91.7574
lradius 90.3073
lwrist -29.0281
lhand -8.01735 -316.599
lfingers 7.12502
lthumb 17.8921 -1367.4
rfemur 3.49699 -11.8378 27.7931
rtibia 20.7256
rfoot -26.5362 -8.40698
rtoes -28.518
lfemur -38.3699 22.4749 -22.8272
ltibia 55.1551
lfoot -31.7285 21.751
ltoes -1.87894
2037
root 14.2732 15.5896 -5.65966 -2508.65 -403.819 -9.65622
lowerback -0.375739 1.73155 4.75824
upperback -6.61956 2.53932 2.76022
thorax -6.61328 1.0389 0.0946583
lowerneck 8.65651 -16.2069 -14.2189
upperneck 9.88475 -24.0297 11.395
head 4.69397 -12.3118 4.66015
rclavicle 2.14936e-014 3.24019e-014
rhumerus 14.9608 3.16555 -112.037
rradius 93.5723
rwrist -31.1121
rhand 64.9091 255.319
rfingers 7.12502
rthumb 74.9092 204.842
lclavicle 2.14936e-014 3.24019e-014
lhumerus 19.1778 -60.0017 88.3889
lradius 91.839
lwrist -28.4179
lhand -10.1921 -317.57
lfingers 7.12502
lthumb 15.7987 -1368.2
rfemur 3.18371 -11.6759 27.1528
rtibia 22.4986
rfoot -26.5904 -10.6323
rtoes -29.9503
lfemur -37.1108 20.7563 -23.8264
ltibia 54.0799
lfoot -31.0964 19.8736
ltoes -5.125
